<svg xmlns="http://www.w3.org/2000/svg" viewBox="0 0 1200 360" role="img" aria-labelledby="title description">
  <title id="title">stealthsrc profile</title>
  <desc id="description">Monochrome profile banner for local-first automation, agents, MCP and desktop tools.</desc>
  <style>.display{font-family:Impact,Haettenschweiler,"Arial Black","DejaVu Sans Condensed",sans-serif}.mono{font-family:"SFMono-Regular",Consolas,"Liberation Mono",monospace}.o{stroke:#000;stroke-width:5;stroke-linejoin:miter}.label{font-size:18px;font-weight:800;letter-spacing:1px}.small{font-size:14px;font-weight:700;letter-spacing:.8px}</style>
  <rect width="1200" height="360" fill="#fff"/><rect x="30" y="30" width="1140" height="300" fill="#000"/><rect x="18" y="18" width="1140" height="300" fill="#fff" class="o"/>
  <rect x="18" y="18" width="1140" height="50" fill="#000" class="o"/><text x="42" y="51" class="mono label" fill="#fff">PROFILE://stealthsrc</text><text x="962" y="51" class="mono small" fill="#fff">MONO / LOCAL-FIRST</text>
  <text x="52" y="142" class="display" font-size="92" letter-spacing="-3" fill="#000">stealthsrc</text><text x="55" y="174" class="mono label" fill="#000">AUTOMATION / AGENTS / MCP / DESKTOP TOOLS</text>
  <rect x="770" y="92" width="350" height="94" fill="#000" class="o"/><text x="792" y="125" class="mono small" fill="#fff">CONTROL_ROOM.exe</text><text x="792" y="151" class="mono small" fill="#fff">&gt; route noise --to signal</text><text x="792" y="176" class="mono small" fill="#fff">[OK] quiet tools online</text>
  <g class="mono"><rect x="52" y="236" width="246" height="48" fill="#fff" class="o"/><text x="74" y="267" class="mono label" fill="#000">INPUT</text><path d="M298 260h34m-13-11 13 11-13 11" fill="none" stroke="#000" stroke-width="5"/><rect x="332" y="236" width="246" height="48" fill="#fff" class="o"/><text x="353" y="267" class="mono label" fill="#000">AGENTS + MCP</text><path d="M578 260h34m-13-11 13 11-13 11" fill="none" stroke="#000" stroke-width="5"/><rect x="612" y="236" width="246" height="48" fill="#fff" class="o"/><text x="643" y="267" class="mono label" fill="#000">TOOLS</text><path d="M858 260h34m-13-11 13 11-13 11" fill="none" stroke="#000" stroke-width="5"/><rect x="892" y="236" width="228" height="48" fill="#000" class="o"/><text x="928" y="267" class="mono label" fill="#fff">PROOF</text></g>
  <text x="52" y="308" class="mono small" fill="#000">QUIET SYSTEMS / CLEAR SIGNAL</text>
</svg>
